<mxfile host="app.diagrams.net" modified="2023-06-19T21:15:32.221Z" agent="Mozilla/5.0 (Windows NT 10.0; Win64; x64) AppleWebKit/537.36 (KHTML, like Gecko) Chrome/114.0.0.0 Safari/537.36" etag="hYTGxA9Pkk-nEv--PoLH" version="21.5.0" type="device">
  <diagram name="Page-1" id="NqcA4VGolqbiGWAiVVS3">
    <mxGraphModel dx="1843" dy="881" grid="1" gridSize="10" guides="1" tooltips="1" connect="1" arrows="1" fold="1" page="1" pageScale="1" pageWidth="850" pageHeight="1100" math="0" shadow="0">
      <root>
        <mxCell id="0" />
        <mxCell id="1" parent="0" />
        <mxCell id="RpHPFH-tG3lKaWMk9xFU-1" value="Idle" style="rounded=1;whiteSpace=wrap;html=1;" parent="1" vertex="1">
          <mxGeometry x="130" y="160" width="120" height="60" as="geometry" />
        </mxCell>
        <mxCell id="RpHPFH-tG3lKaWMk9xFU-2" style="edgeStyle=orthogonalEdgeStyle;rounded=0;orthogonalLoop=1;jettySize=auto;html=1;entryX=0.5;entryY=0;entryDx=0;entryDy=0;" parent="1" source="RpHPFH-tG3lKaWMk9xFU-3" target="RpHPFH-tG3lKaWMk9xFU-1" edge="1">
          <mxGeometry relative="1" as="geometry" />
        </mxCell>
        <mxCell id="RpHPFH-tG3lKaWMk9xFU-3" value="" style="ellipse;whiteSpace=wrap;html=1;aspect=fixed;fillColor=#0d0c0c;" parent="1" vertex="1">
          <mxGeometry x="70" y="90" width="30" height="30" as="geometry" />
        </mxCell>
        <mxCell id="RpHPFH-tG3lKaWMk9xFU-4" value="Plant_Position() /" style="text;html=1;align=center;verticalAlign=middle;resizable=0;points=[];autosize=1;strokeColor=none;fillColor=none;" parent="1" vertex="1">
          <mxGeometry x="160" y="80" width="110" height="30" as="geometry" />
        </mxCell>
        <mxCell id="RpHPFH-tG3lKaWMk9xFU-5" value="Select_Diseased_crop" style="rounded=1;whiteSpace=wrap;html=1;" parent="1" vertex="1">
          <mxGeometry x="360" y="160" width="180" height="60" as="geometry" />
        </mxCell>
        <mxCell id="RpHPFH-tG3lKaWMk9xFU-15" style="edgeStyle=orthogonalEdgeStyle;rounded=0;orthogonalLoop=1;jettySize=auto;html=1;entryX=0.5;entryY=0;entryDx=0;entryDy=0;" parent="1" source="RpHPFH-tG3lKaWMk9xFU-6" target="RpHPFH-tG3lKaWMk9xFU-14" edge="1">
          <mxGeometry relative="1" as="geometry" />
        </mxCell>
        <mxCell id="RpHPFH-tG3lKaWMk9xFU-6" value="Spray_Pesticide()" style="rounded=1;whiteSpace=wrap;html=1;" parent="1" vertex="1">
          <mxGeometry x="390" y="380" width="120" height="60" as="geometry" />
        </mxCell>
        <mxCell id="RpHPFH-tG3lKaWMk9xFU-7" value="" style="endArrow=classic;html=1;rounded=0;exitX=1;exitY=0.5;exitDx=0;exitDy=0;entryX=0;entryY=0.5;entryDx=0;entryDy=0;" parent="1" source="RpHPFH-tG3lKaWMk9xFU-1" target="RpHPFH-tG3lKaWMk9xFU-5" edge="1">
          <mxGeometry width="50" height="50" relative="1" as="geometry">
            <mxPoint x="400" y="260" as="sourcePoint" />
            <mxPoint x="450" y="210" as="targetPoint" />
          </mxGeometry>
        </mxCell>
        <mxCell id="RpHPFH-tG3lKaWMk9xFU-8" value="" style="endArrow=classic;html=1;rounded=0;exitX=0.5;exitY=1;exitDx=0;exitDy=0;" parent="1" source="RpHPFH-tG3lKaWMk9xFU-5" target="RpHPFH-tG3lKaWMk9xFU-6" edge="1">
          <mxGeometry width="50" height="50" relative="1" as="geometry">
            <mxPoint x="400" y="260" as="sourcePoint" />
            <mxPoint x="450" y="210" as="targetPoint" />
          </mxGeometry>
        </mxCell>
        <mxCell id="RpHPFH-tG3lKaWMk9xFU-9" value="" style="endArrow=classic;html=1;rounded=0;exitX=0;exitY=0.5;exitDx=0;exitDy=0;entryX=0.5;entryY=1;entryDx=0;entryDy=0;" parent="1" source="RpHPFH-tG3lKaWMk9xFU-6" target="RpHPFH-tG3lKaWMk9xFU-1" edge="1">
          <mxGeometry width="50" height="50" relative="1" as="geometry">
            <mxPoint x="400" y="260" as="sourcePoint" />
            <mxPoint x="450" y="210" as="targetPoint" />
            <Array as="points">
              <mxPoint x="190" y="410" />
              <mxPoint x="190" y="380" />
            </Array>
          </mxGeometry>
        </mxCell>
        <mxCell id="RpHPFH-tG3lKaWMk9xFU-10" value="/ Update_Weed_position()&amp;nbsp;" style="text;html=1;align=center;verticalAlign=middle;resizable=0;points=[];autosize=1;strokeColor=none;fillColor=none;rotation=90;" parent="1" vertex="1">
          <mxGeometry x="350" y="290" width="170" height="30" as="geometry" />
        </mxCell>
        <mxCell id="RpHPFH-tG3lKaWMk9xFU-11" value="/Send_Ack()" style="text;html=1;align=center;verticalAlign=middle;resizable=0;points=[];autosize=1;strokeColor=none;fillColor=none;" parent="1" vertex="1">
          <mxGeometry x="200" y="380" width="90" height="30" as="geometry" />
        </mxCell>
        <mxCell id="RpHPFH-tG3lKaWMk9xFU-12" value="Crop Protection" style="text;html=1;align=center;verticalAlign=middle;resizable=0;points=[];autosize=1;strokeColor=none;fillColor=none;fontSize=31;" parent="1" vertex="1">
          <mxGeometry x="60" y="8" width="240" height="50" as="geometry" />
        </mxCell>
        <mxCell id="RpHPFH-tG3lKaWMk9xFU-14" value="Update_User" style="rounded=1;whiteSpace=wrap;html=1;" parent="1" vertex="1">
          <mxGeometry x="390" y="580" width="120" height="60" as="geometry" />
        </mxCell>
        <mxCell id="RpHPFH-tG3lKaWMk9xFU-16" value="Pesticide_Empty()" style="text;html=1;align=center;verticalAlign=middle;resizable=0;points=[];autosize=1;strokeColor=none;fillColor=none;rotation=90;" parent="1" vertex="1">
          <mxGeometry x="410" y="490" width="120" height="30" as="geometry" />
        </mxCell>
        <mxCell id="RpHPFH-tG3lKaWMk9xFU-17" value="/ Abort()" style="text;html=1;align=center;verticalAlign=middle;resizable=0;points=[];autosize=1;strokeColor=none;fillColor=none;rotation=270;" parent="1" vertex="1">
          <mxGeometry x="390" y="490" width="70" height="30" as="geometry" />
        </mxCell>
        <mxCell id="RK7jn_ZzWFRRBLPmguu6-1" value="" style="shape=flexArrow;endArrow=classic;startArrow=classic;html=1;rounded=0;" edge="1" parent="1">
          <mxGeometry width="100" height="100" relative="1" as="geometry">
            <mxPoint x="340" y="1480" as="sourcePoint" />
            <mxPoint x="440" y="1380" as="targetPoint" />
            <Array as="points">
              <mxPoint x="380" y="1440" />
            </Array>
          </mxGeometry>
        </mxCell>
      </root>
    </mxGraphModel>
  </diagram>
</mxfile>
